<svg width="16" height="22" viewBox="0 0 16 22" fill="none" xmlns="http://www.w3.org/2000/svg">
<path d="M1.33331 8.125C1.33331 4.94302 1.33331 3.35203 2.06555 2.36351C2.79778 1.375 3.97629 1.375 6.33331 1.375H9.66665C12.0237 1.375 13.2022 1.375 13.9344 2.36351C14.6666 3.35203 14.6666 4.94302 14.6666 8.125V15.8061C14.6666 18.8248 14.6666 20.3341 13.9631 20.7958C13.2595 21.2574 12.3804 20.3249 10.6221 18.4599L10.0594 17.863C9.07074 16.8143 8.57642 16.29 7.99998 16.29C7.42354 16.29 6.92922 16.8143 5.94057 17.863L5.37787 18.4599C3.6196 20.3249 2.74047 21.2574 2.03689 20.7958C1.33331 20.3341 1.33331 18.8248 1.33331 15.8061V8.125Z" stroke="white" stroke-width="2"/>
</svg>
